
<?xml version="1.0" encoding="utf-8"?>
<!-- Generator: Adobe Illustrator 22.1.0, SVG Export Plug-In . SVG Version: 6.00 Build 0)  -->
<svg version="1.1" xmlns="http://www.w3.org/2000/svg" xmlns:xlink="http://www.w3.org/1999/xlink" x="0px" y="0px"
	 viewBox="0 0 30 30" style="enable-background:new 0 0 30 30;" xml:space="preserve">
<style type="text/css">
	.st0{fill:#FFFFFF;stroke:#53535D;stroke-width:0.6825;stroke-miterlimit:10;}
	.st1{fill:#3CAF20;}
</style>
<g id="Layer_1">
	<path class="st0" d="M15.5,0.4C9.2,0.4,3.9,5.6,3.9,12c0,5.3,3.5,9.9,8.6,11.3l2.6,6.1c0.1,0.2,0.3,0.3,0.4,0.3
		c0.2,0,0.3-0.1,0.4-0.3l2.6-6.1c5-1.4,8.6-6,8.6-11.3C27.3,5.6,22,0.4,15.5,0.4"/>
</g>
<g id="Layer_2">
	<g>
		<path id="Path_1846_1_" class="st1" d="M20,9.6c-0.8-0.7-1.8-1.2-2.7-1.2c-1.1,0-2,0.4-2.7,1.2l-1-1c1-1,2.3-1.5,3.7-1.5
			S20,7.6,21,8.7L20,9.6z M17.2,6.2c1.6,0,3.2,0.7,4.4,1.9l1-1c-1.5-1.4-3.4-2.2-5.3-2.2s-4,0.7-5.4,2.1l1,1
			C14,6.8,15.6,6.2,17.2,6.2L17.2,6.2z M19.2,10.2c-0.4-0.6-1.2-1-2.1-1c-0.9,0.1-1.6,0.4-2.1,1l1,1c0.2-0.3,0.7-0.4,1.1-0.4
			c0.4,0,0.8,0.1,1.1,0.4L19.2,10.2z"/>
		<path class="st1" d="M22.2,12.4H8.5c-0.1,0-0.3,0.1-0.3,0.3v4c0,0.1,0.1,0.3,0.3,0.3h13.6c0.1,0,0.3-0.1,0.3-0.3v-4.1
			C22.4,12.5,22.4,12.4,22.2,12.4z M21.8,16.1c0,0.1-0.2,0.3-0.4,0.3H9.2c-0.1,0-0.3-0.1-0.3-0.3v-2.8C8.9,13.1,9,13,9.2,13h12.2
			c0.1,0,0.3,0.1,0.3,0.3L21.8,16.1L21.8,16.1z"/>
		<path class="st1" d="M20.5,14.6h-3.2c-0.2,0-0.4-0.1-0.4-0.4l0,0c0-0.2,0.1-0.4,0.4-0.4h3.2c0.2,0,0.4,0.1,0.4,0.4l0,0
			C20.9,14.5,20.7,14.6,20.5,14.6z"/>
		<circle class="st1" cx="10.4" cy="14.3" r="0.4"/>
		<circle class="st1" cx="11.8" cy="14.3" r="0.4"/>
		<circle class="st1" cx="13.4" cy="14.3" r="0.4"/>
		<circle class="st1" cx="15.2" cy="14.3" r="0.4"/>
	</g>
</g>
</svg>
